<?xml version="1.0" encoding="UTF-8"?>
<mxGraphModel dx="1178" dy="827" grid="1" gridSize="10" guides="1" tooltips="1" connect="1" arrows="1" fold="1" page="1" pageScale="1" pageWidth="827" pageHeight="1169" math="0" shadow="0">
  <root>
    <mxCell id="0" />
    <mxCell id="1" parent="0" />
    
    <!-- Data Layer -->
    <mxCell id="2" value="Data Layer" style="swimlane;fillColor=#DDEEFF;" vertex="1" parent="1">
      <mxGeometry x="10" y="10" width="200" height="150" as="geometry" />
    </mxCell>
    <mxCell id="3" value="Snowflake Data Cloud" style="ellipse;fillColor=#99CCFF;" vertex="1" parent="2">
      <mxGeometry x="20" y="30" width="160" height="40" as="geometry" />
    </mxCell>
    <mxCell id="4" value="Streams & Tasks" style="ellipse;fillColor=#99CCFF;" vertex="1" parent="2">
      <mxGeometry x="20" y="80" width="160" height="40" as="geometry" />
    </mxCell>

    <!-- Development Layer -->
    <mxCell id="5" value="Development Layer" style="swimlane;fillColor=#E3F2FD;" vertex="1" parent="1">
      <mxGeometry x="220" y="10" width="200" height="150" as="geometry" />
    </mxCell>
    <mxCell id="6" value="Snowpark" style="ellipse;fillColor=#90CAF9;" vertex="1" parent="5">
      <mxGeometry x="230" y="30" width="160" height="40" as="geometry" />
    </mxCell>
    <mxCell id="7" value="ML Functions" style="ellipse;fillColor=#90CAF9;" vertex="1" parent="5">
      <mxGeometry x="230" y="80" width="160" height="40" as="geometry" />
    </mxCell>

    <!-- Training Layer -->
    <mxCell id="8" value="Training Layer" style="swimlane;fillColor=#FFF3E0;" vertex="1" parent="1">
      <mxGeometry x="430" y="10" width="200" height="150" as="geometry" />
    </mxCell>
    <mxCell id="9" value="External ML (TensorFlow, PyTorch)" style="ellipse;fillColor=#FFB74D;" vertex="1" parent="8">
      <mxGeometry x="440" y="30" width="160" height="40" as="geometry" />
    </mxCell>
    <mxCell id="10" value="Snowflake Stages" style="ellipse;fillColor=#FFB74D;" vertex="1" parent="8">
      <mxGeometry x="440" y="80" width="160" height="40" as="geometry" />
    </mxCell>

    <!-- Model Registry -->
    <mxCell id="11" value="Model Registry" style="swimlane;fillColor=#FCE4EC;" vertex="1" parent="1">
      <mxGeometry x="640" y="10" width="200" height="150" as="geometry" />
    </mxCell>
    <mxCell id="12" value="Model Registry" style="ellipse;fillColor=#F06292;" vertex="1" parent="11">
      <mxGeometry x="650" y="50" width="160" height="40" as="geometry" />
    </mxCell>

    <!-- CI/CD Pipeline -->
    <mxCell id="13" value="CI/CD Pipeline" style="swimlane;fillColor=#E8F5E9;" vertex="1" parent="1">
      <mxGeometry x="10" y="180" width="200" height="150" as="geometry" />
    </mxCell>
    <mxCell id="14" value="Git Integration" style="ellipse;fillColor=#66BB6A;" vertex="1" parent="13">
      <mxGeometry x="20" y="200" width="160" height="40" as="geometry" />
    </mxCell>
    <mxCell id="15" value="Tasks & Streams" style="ellipse;fillColor=#66BB6A;" vertex="1" parent="13">
      <mxGeometry x="20" y="250" width="160" height="40" as="geometry" />
    </mxCell>

    <!-- Deployment Layer -->
    <mxCell id="16" value="Deployment Layer" style="swimlane;fillColor=#FFECB3;" vertex="1" parent="1">
      <mxGeometry x="220" y="180" width="200" height="150" as="geometry" />
    </mxCell>
    <mxCell id="17" value="Stored Procedures" style="ellipse;fillColor=#FFCA28;" vertex="1" parent="16">
      <mxGeometry x="230" y="200" width="160" height="40" as="geometry" />
    </mxCell>
    <mxCell id="18" value="External Functions" style="ellipse;fillColor=#FFCA28;" vertex="1" parent="16">
      <mxGeometry x="230" y="250" width="160" height="40" as="geometry" />
    </mxCell>

    <!-- Monitoring Layer -->
    <mxCell id="19" value="Monitoring Layer" style="swimlane;fillColor=#D1C4E9;" vertex="1" parent="1">
      <mxGeometry x="430" y="180" width="200" height="150" as="geometry" />
    </mxCell>
    <mxCell id="20" value="Query History" style="ellipse;fillColor=#9575CD;" vertex="1" parent="19">
      <mxGeometry x="440" y="200" width="160" height="40" as="geometry" />
    </mxCell>
    <mxCell id="21" value="Usage Monitoring" style="ellipse;fillColor=#9575CD;" vertex="1" parent="19">
      <mxGeometry x="440" y="250" width="160" height="40" as="geometry" />
    </mxCell>

  </root>
</mxGraphModel>
